<svg xmlns="http://www.w3.org/2000/svg" viewBox="0 0 180 260" width="36" height="52">
  <!-- ISAlmere-style ampersand logo -->
  <circle cx="118" cy="16" r="16" fill="#28903A"/>
  <path d="
    M 108 50
    C 130 50, 148 65, 148 90
    C 148 110, 130 125, 110 135
    C 90 145, 60 155, 45 175
    C 25 200, 40 240, 75 245
    C 110 250, 135 230, 135 210
    C 135 190, 110 180, 85 175
    C 60 170, 30 155, 20 130
    C 10 105, 20 75, 45 60
    C 70 45, 95 50, 108 50
    Z
  " fill="#28903A" stroke="none"/>
</svg>
