<svg xmlns="http://www.w3.org/2000/svg" width="68" height="165" viewBox="0 0 68 165">
  <path d="M66.541,89.616H56.582a1.536,1.536,0,0,0-1.536,1.536v10.084q-.732-.816-1.473-1.627c-.308-.337-.619-.672-.929-1.008l-.337-.366h0L34.369,82.305C26.75,74.612,19.26,67.707,15.5,58.05q-.183-.468-.352-.943a22.369,22.369,0,0,1-1.275-6.13q-.055-.868-.039-1.726.008-.429.033-.854A19.218,19.218,0,0,1,19.39,35.84q.291-.29.6-.567a18.079,18.079,0,0,1,2.655-2c.235-.146.471-.285.709-.42.078-.045.158-.087.237-.131.16-.089.321-.177.482-.261.095-.05.191-.1.286-.145.148-.074.3-.147.443-.217l.3-.142q.217-.1.436-.193c.1-.044.206-.089.31-.131.147-.061.3-.119.443-.176.1-.04.2-.08.306-.118.158-.058.317-.113.477-.168.091-.032.183-.065.275-.1q.367-.12.736-.227c.074-.021.148-.039.221-.06.179-.049.357-.1.536-.143.11-.027.22-.051.33-.077l.431-.1c.12-.025.239-.048.359-.071s.27-.051.4-.074.247-.041.371-.06.265-.039.4-.056.25-.033.374-.047.265-.028.4-.041.249-.024.373-.034.276-.018.414-.026c.119-.007.238-.015.357-.02a20.574,20.574,0,0,1,3.138.118c4.125.974,6.678,1.431,10.3,3.077a1.452,1.452,0,0,0,1.956-.794l4.181-10.8a1.45,1.45,0,0,0-.906-1.9L45.9,17.861c-.62-.224-1.25-.425-1.886-.61l-.214-.069-.005.009A35.374,35.374,0,0,0,31.54,16.046l-.207.017c-.31.025-.619.049-.932.08q-.582.058-1.172.132h-.012a35.582,35.582,0,0,0-13.545,4.316q-1.088.631-2.123,1.362S3.728,28.108.522,44.594h0A38.164,38.164,0,0,0,1,55.228l.2,1.064q.215,1.067.485,2.143a40.23,40.23,0,0,0,5.106,11.7q.421.672.864,1.332a77.5,77.5,0,0,0,6.978,8.763c.24.265.484.525.725.788q1.808,1.974,3.664,3.919l18,15.868c1.087,1.058,2.167,2.115,3.225,3.182a77.994,77.994,0,0,1,7.842,8.986q.877,1.206,1.685,2.47.4.628.77,1.261t.7,1.272c3.126,5.959,4.018,12.266,1.355,18.974-.092.234-.191.466-.293.7-.026.056-.054.112-.08.168l-.028.061c-.021.045-.043.09-.065.135-.05.1-.1.213-.15.317-.021.041-.044.081-.065.123l-.077.148c-.069.132-.136.265-.209.4-.031.057-.064.112-.1.168-.022.04-.045.078-.067.118-.071.122-.14.244-.213.365-.056.092-.115.183-.173.274l-.011.018c-.073.114-.144.228-.219.341l-.052.076-.151.221-.109.156c-.039.054-.076.109-.115.163s-.084.114-.126.171l-.094.127-.092.121c-.045.06-.09.121-.137.18-.029.037-.059.073-.088.109l-.15.189c-.078.1-.155.189-.234.282l-.257.3c-.086.1-.156.176-.236.263l-.277.3q-.117.123-.236.243l-.028.028c-.09.091-.18.181-.272.271l-.114.11-.117.112-.18.168c-.06.056-.094.088-.143.132l-.171.153-.052.046-.349.3-.083.068-.127.1c-.126.1-.252.206-.38.306-.063.049-.126.1-.19.144-.138.106-.277.212-.419.314l-.155.109-.034.024-.435.3-.1.062h0c-.277.184-.561.361-.848.532l-.137.081q-.439.259-.892.5l-.026.013c-.285.149-.576.29-.868.427l-.178.083c-.3.138-.611.271-.92.4l-.03.011c-.3.118-.594.226-.9.33l-.209.072c-.313.1-.628.2-.945.292h-.011c-.31.087-.623.163-.936.236l-.231.052c-.319.069-.639.134-.962.187h0q-.36.06-.723.106h-.01c-.2.025-.4.045-.6.064-.042,0-.085.01-.127.014h0c-.053,0-.1.007-.158.011-.189.015-.378.03-.568.039h-.009c-.244.012-.489.02-.733.022-.418,0-.835,0-1.253-.025-6.724-.386-12.274-3.274-15.666-7.989q-.222-.308-.43-.625a18.967,18.967,0,0,1-2.5-5.71,22.592,22.592,0,0,1,2.163-16.636q.275-.52.575-1.035.409-.7.837-1.393a77.563,77.563,0,0,1,10.6-13.2,1.731,1.731,0,0,0-.068-2.476L21.625,94.04a1.735,1.735,0,0,0-2.429.068l-2.5,2.584a100.727,100.727,0,0,0-6.848,7.928q-.454.6-.9,1.2-1.327,1.818-2.524,3.746A42.6,42.6,0,0,0,.581,124.212q-.175.948-.3,1.9t-.192,1.92a35.3,35.3,0,0,0,1.177,11.85c3.675,13.586,13.034,20.969,26.741,23.23.337.056.673.1,1.009.151.11.015.22.027.33.041q.339.044.675.08c.131.014.262.026.392.038.2.019.406.038.609.054.138.011.276.02.414.029.194.013.388.025.582.034l.422.018c.191.007.381.013.571.017q.212,0,.423.006h.985c.178,0,.355-.009.532-.016H35.1l.3-.013c.16-.008.319-.018.478-.028l.184-.012.306-.02c.143-.011.285-.025.427-.038l.208-.019.053-.005c.09-.009.181-.016.271-.026.126-.013.251-.029.376-.044h0l.206-.025.368-.045c.07-.009.139-.021.21-.031l.116-.017.2-.03h0c.137-.021.274-.04.411-.063.1-.016.2-.034.3-.052l.184-.032h0c.151-.027.3-.053.453-.083l.285-.057.142-.029h.005c.166-.034.331-.069.5-.106l.273-.062.05-.012.071-.017c.175-.041.351-.083.526-.127l.4-.1q.257-.068.513-.14l.4-.114q.255-.076.509-.156l.1-.03.028-.009.26-.084q.237-.078.473-.159h0l.144-.049.263-.091c.142-.05.282-.1.423-.156l.184-.068c.089-.033.179-.066.267-.1.124-.048.247-.1.37-.148l.207-.084h0l.081-.033.2-.08c.108-.045.214-.093.321-.139l.209-.091c.1-.045.209-.09.313-.137s.181-.084.271-.126h0l.208-.1c.116-.055.233-.109.348-.165l.263-.131.181-.091c.127-.064.255-.128.381-.193l.252-.133.145-.078h0c.138-.074.277-.149.414-.225.081-.045.162-.089.242-.135l.1-.057.014-.008c.15-.085.3-.171.447-.259q.177-.1.351-.21.221-.134.438-.27l.346-.219q.214-.138.425-.279l.138-.091.2-.137c.126-.086.25-.173.375-.261h0l.171-.121c.067-.048.136-.1.2-.144.109-.078.216-.158.323-.238h0l.2-.151c.067-.051.135-.1.2-.151.1-.072.188-.146.281-.219l.222-.174h0c.058-.047.118-.092.176-.139l.029-.023v6.112a1.536,1.536,0,0,0,1.536,1.536H66.5a1.536,1.536,0,0,0,1.536-1.536v-71A1.536,1.536,0,0,0,66.5,89.651" transform="translate(0 -7.614)" fill="#28903a"/>
  <path d="M111.481,46.709a7.109,7.109,0,1,0-7.109-7.109,7.109,7.109,0,0,0,7.109,7.109" transform="translate(-49.86 -15.522)" fill="#00932b"/>
</svg>
